# Blender v2.80 (sub 75) OBJ File: ''
# www.blender.org
mtllib face.mtl
o Cube_Cube.001
v -0.458679 -0.563480 0.483270
v -0.424044 0.467422 0.500000
v -0.434894 -0.500000 -0.186786
v -0.434894 0.500000 -0.186786
v -0.491585 -0.687748 -0.024160
v -0.544461 -0.000000 0.609568
v -0.544461 0.609568 0.000000
v -0.544462 -0.000000 -0.296354
v -0.020917 -0.546517 0.628938
v -0.774400 0.000000 0.000000
v 0.033930 -0.551360 0.021519
v -0.491585 -0.687748 -0.024160
v -0.458679 -0.563480 0.483270
v -0.020917 -0.546517 0.628938
v 0.033930 -0.551360 0.021519
v 0.458679 -0.563480 0.483270
v 0.424044 0.467422 0.500000
v 0.434894 -0.500000 -0.186786
v 0.434894 0.500000 -0.186786
v 0.491585 -0.687748 -0.024160
v 0.544461 -0.000000 0.609568
v 0.544461 0.609568 0.000000
v 0.544462 -0.000000 -0.296354
v 0.000000 -0.609568 -0.296354
v 0.000000 0.609568 -0.296354
v 0.020917 -0.546517 0.628938
v 0.000000 0.737618 0.609568
v 0.774400 0.000000 0.000000
v 0.000000 0.000000 -0.433165
v 0.000000 0.000000 0.909352
v -0.033930 -0.551360 0.021519
v 0.000000 0.839506 0.000000
v 0.491585 -0.687748 -0.024160
v 0.458679 -0.563480 0.483270
v 0.020917 -0.546517 0.628938
v -0.033930 -0.551360 0.021519
vt 0.375000 0.000000
vt 0.500000 0.000000
vt 0.500000 0.125000
vt 0.375000 0.125000
vt 0.625000 0.000000
vt 0.625000 0.125000
vt 0.625000 0.250000
vt 0.500000 0.250000
vt 0.375000 0.250000
vt 0.500000 0.373264
vt 0.369792 0.369792
vt 0.630208 0.369792
vt 0.500000 0.876736
vt 0.630208 0.880208
vt 0.625000 1.000000
vt 0.500000 1.000000
vt 0.369792 0.880208
vt 0.375000 1.000000
vt 0.125000 0.500000
vt 0.244792 0.494792
vt 0.248264 0.625000
vt 0.125000 0.625000
vt 0.375000 0.125000
vt 0.375000 0.000000
vt 0.755208 0.494792
vt 0.875000 0.500000
vt 0.875000 0.625000
vt 0.751736 0.625000
vt 0.875000 0.750000
vt 0.755208 0.755208
vt 0.125000 0.625000
vt 0.248264 0.625000
vt 0.244792 0.755208
vt 0.125000 0.750000
vt 0.000000 0.000000
vt 0.000000 0.000000
vt 0.000000 0.000000
vt 0.000000 0.000000
vt 0.375000 1.000000
vt 0.369792 0.880208
vt 0.375000 0.000000
vt 0.375000 0.125000
vt 0.500000 0.125000
vt 0.500000 0.000000
vt 0.625000 0.125000
vt 0.625000 0.000000
vt 0.500000 0.250000
vt 0.625000 0.250000
vt 0.375000 0.250000
vt 0.500000 1.000000
vt 0.625000 1.000000
vt 0.369792 0.880208
vt 0.375000 1.000000
vt 0.125000 0.500000
vt 0.125000 0.625000
vt 0.248264 0.625000
vt 0.375000 0.000000
vt 0.375000 0.125000
vt 0.875000 0.625000
vt 0.875000 0.500000
vt 0.875000 0.750000
vt 0.125000 0.625000
vt 0.125000 0.750000
vt 0.244792 0.755208
vt 0.248264 0.625000
vt 0.000000 0.000000
vt 0.000000 0.000000
vt 0.000000 0.000000
vt 0.000000 0.000000
vt 0.369792 0.880208
vt 0.375000 1.000000
vn -0.9202 -0.3011 0.2500
vn -0.8901 0.3223 0.3223
vn -0.7514 0.2885 -0.5934
vn -0.7533 -0.2913 -0.5896
vn -0.2617 -0.2338 -0.9364
vn -0.2617 0.2338 -0.9364
vn -0.4439 0.3277 0.8340
vn -0.3840 -0.3374 0.8595
vn 0.0097 -0.9656 -0.2599
vn 0.0000 0.0000 1.0000
vn -0.3223 0.7386 -0.5921
vn -0.4668 0.8518 0.2380
vn 0.1335 -0.9842 0.1166
vn 0.9202 -0.3011 0.2500
vn 0.8901 0.3223 0.3223
vn 0.7514 0.2885 -0.5934
vn 0.7533 -0.2913 -0.5896
vn 0.2617 -0.2338 -0.9364
vn 0.2617 0.2338 -0.9364
vn 0.4439 0.3277 0.8340
vn 0.3840 -0.3374 0.8595
vn -0.0097 -0.9656 -0.2599
vn 0.3223 0.7386 -0.5921
vn 0.4668 0.8518 0.2380
vn -0.1335 -0.9842 0.1166
usemtl None
s off
f 1/1/1 6/2/1 10/3/1 5/4/1
f 6/2/2 2/5/2 7/6/2 10/3/2
f 10/3/3 7/6/3 4/7/3 8/8/3
f 5/4/4 10/3/4 8/8/4 3/9/4
f 3/9/5 8/8/5 29/10/5 24/11/5
f 8/8/6 4/7/6 25/12/6 29/10/6
f 30/13/7 27/14/7 2/15/7 6/16/7
f 9/17/8 30/13/8 6/16/8 1/18/8
f 3/19/9 24/20/9 11/21/9 5/22/9
f 1/1/10 5/4/10 12/23/10 13/24/10
f 25/25/11 4/26/11 7/27/11 32/28/11
f 32/28/12 7/27/12 2/29/12 27/30/12
f 12/31/13 15/32/13 14/33/13 13/34/13
f 11/35/10 9/36/10 14/37/10 15/38/10
f 9/17/10 1/18/10 13/39/10 14/40/10
f 5/22/10 11/21/10 15/32/10 12/31/10
f 16/41/14 20/42/14 28/43/14 21/44/14
f 21/44/15 28/43/15 22/45/15 17/46/15
f 28/43/16 23/47/16 19/48/16 22/45/16
f 20/42/17 18/49/17 23/47/17 28/43/17
f 18/49/18 24/11/18 29/10/18 23/47/18
f 23/47/19 29/10/19 25/12/19 19/48/19
f 30/13/20 21/50/20 17/51/20 27/14/20
f 26/52/21 16/53/21 21/50/21 30/13/21
f 18/54/22 20/55/22 31/56/22 24/20/22
f 16/41/10 34/57/10 33/58/10 20/42/10
f 25/25/23 32/28/23 22/59/23 19/60/23
f 32/28/24 27/30/24 17/61/24 22/59/24
f 33/62/25 34/63/25 35/64/25 36/65/25
f 31/66/10 36/67/10 35/68/10 26/69/10
f 26/52/10 35/70/10 34/71/10 16/53/10
f 20/55/10 33/62/10 36/65/10 31/56/10
